<svg width="212" height="212" viewBox="0 0 212 212" fill="none" xmlns="http://www.w3.org/2000/svg">
<path fill-rule="evenodd" clip-rule="evenodd" d="M126.689 97.94C116.83 87.296 100.355 84.0066 88.0022 93.7533C75.6494 103.5 73.9103 119.796 83.611 131.323C91.6765 140.908 116.086 161.122 124.085 167.664C124.98 168.396 125.428 168.762 125.95 168.906C126.405 169.031 126.904 169.031 127.36 168.906C127.882 168.762 128.329 168.396 129.224 167.664C137.224 161.122 161.633 140.908 169.699 131.323C179.399 119.796 177.872 103.397 165.307 93.7533C152.742 84.1091 136.548 87.296 126.689 97.94Z" stroke="#F07167" stroke-width="5" stroke-linecap="round" stroke-linejoin="round"/>
<path d="M93.306 123.416H113.971" stroke="white" stroke-width="3" stroke-linecap="round"/>
<path d="M113.971 123.416L118.4 114.563" stroke="white" stroke-width="3" stroke-linecap="round"/>
<path d="M122.828 141.123L118.4 114.563" stroke="white" stroke-width="3" stroke-linecap="round"/>
<path d="M122.828 141.123L131.685 123.416" stroke="white" stroke-width="3" stroke-linecap="round"/>
<path d="M152.35 123.416L131.685 123.416" stroke="white" stroke-width="3" stroke-linecap="round"/>
<path fill-rule="evenodd" clip-rule="evenodd" d="M50.499 43C51.7219 43 52.7132 43.9909 52.7132 45.2133V54.0665C52.7132 55.2889 51.7219 56.2798 50.499 56.2798C49.2762 56.2798 48.2849 55.2889 48.2849 54.0665V52.0116C43.2538 52.8856 39.4283 57.2716 39.4283 62.5508V81.3709C39.4322 94.4063 50.0046 104.972 63.0459 104.972C76.0895 104.972 86.6635 94.4024 86.6635 81.3638V80.7688V64.3476V61.1917C86.6635 56.7068 83.5007 52.9603 79.283 52.0594V54.0665C79.283 55.2889 78.2917 56.2798 77.0688 56.2798C75.846 56.2798 74.8547 55.2889 74.8547 54.0665V45.2133C74.8547 43.9909 75.846 43 77.0688 43C78.2917 43 79.283 43.9909 79.283 45.2133V47.5652C85.9591 48.517 91.0918 54.2552 91.0918 61.1917V64.3476V80.7688V81.3638V83.5771H91.0057C89.9147 97.5406 78.5895 108.632 64.522 109.361V128.581C64.522 139.175 73.1133 147.763 83.7113 147.763C94.3093 147.763 102.901 139.175 102.901 128.581V91.1283V89.4792V76.1994C102.901 67.6428 109.84 60.7064 118.4 60.7064C126.96 60.7064 133.899 67.6429 133.899 76.1994V97.0946C138.541 98.1078 142.017 102.241 142.017 107.186C142.017 112.89 137.391 117.514 131.685 117.514C125.978 117.514 121.352 112.89 121.352 107.186C121.352 102.241 124.828 98.1078 129.47 97.0946V76.1994C129.47 70.0876 124.514 65.133 118.4 65.133C112.285 65.133 107.329 70.0876 107.329 76.1994V89.4792V91.1283V128.581C107.329 141.619 96.7549 152.189 83.7113 152.189C70.6677 152.189 60.0937 141.619 60.0937 128.581V109.245C46.7171 107.847 36.1386 97.0487 35.0861 83.5771H35V81.3638V80.7688V62.9197V62.5508C35 54.8223 40.7991 48.4477 48.2849 47.5379V45.2133C48.2849 43.9909 49.2762 43 50.499 43ZM137.589 107.186C137.589 110.445 134.945 113.088 131.685 113.088C128.424 113.088 125.78 110.445 125.78 107.186C125.78 103.926 128.424 101.283 131.685 101.283C134.945 101.283 137.589 103.926 137.589 107.186Z" fill="black"/>
</svg>
