<svg width="212" height="212" viewBox="0 0 212 212" fill="none" xmlns="http://www.w3.org/2000/svg">
<path d="M54.6562 52.5H111.156C119.527 52.5 126.312 59.2857 126.312 67.6562V145.344C126.312 153.714 119.527 160.5 111.156 160.5H54.6563C46.2857 160.5 39.5 153.714 39.5 145.344V67.6562C39.5 59.2857 46.2857 52.5 54.6562 52.5Z" stroke="black" stroke-width="5"/>
<path fill-rule="evenodd" clip-rule="evenodd" d="M57 77.4844C57 75.8275 59.3715 74.4844 62.2969 74.4844H104.672C107.597 74.4844 109.969 75.8275 109.969 77.4844C109.969 79.1412 107.597 80.4844 104.672 80.4844H62.2969C59.3715 80.4844 57 79.1412 57 77.4844Z" fill="#FA675B"/>
<path fill-rule="evenodd" clip-rule="evenodd" d="M57 106.484C57 104.828 59.3715 103.484 62.2969 103.484H104.672C107.597 103.484 109.969 104.828 109.969 106.484C109.969 108.141 107.597 109.484 104.672 109.484H62.2969C59.3715 109.484 57 108.141 57 106.484Z" fill="#FA675B"/>
<path fill-rule="evenodd" clip-rule="evenodd" d="M57 135.484C57 133.828 59.3715 132.484 62.2969 132.484H90.5469C93.4723 132.484 95.8438 133.828 95.8438 135.484C95.8438 137.141 93.4723 138.484 90.5469 138.484H62.2969C59.3715 138.484 57 137.141 57 135.484Z" fill="#FA675B"/>
</svg>
