<svg width="212" height="212" viewBox="0 0 212 212" fill="none" xmlns="http://www.w3.org/2000/svg">
<path d="M62.5 67.6562C62.5 59.2857 69.2857 52.5 77.6562 52.5H134.156C142.527 52.5 149.312 59.2857 149.312 67.6562V145.344C149.312 153.714 142.527 160.5 134.156 160.5H77.6563C69.2857 160.5 62.5 153.714 62.5 145.344V67.6562Z" stroke="#2B5DDC" stroke-width="5"/>
<path fill-rule="evenodd" clip-rule="evenodd" d="M79.4219 81.7813C79.4219 78.8559 81.7934 76.4844 84.7188 76.4844H127.094C130.019 76.4844 132.391 78.8559 132.391 81.7813C132.391 84.7066 130.019 87.0781 127.094 87.0781H84.7188C81.7934 87.0781 79.4219 84.7066 79.4219 81.7813Z" fill="#FA675B"/>
<path fill-rule="evenodd" clip-rule="evenodd" d="M79.4219 110.031C79.4219 107.106 81.7934 104.734 84.7188 104.734H127.094C130.019 104.734 132.391 107.106 132.391 110.031C132.391 112.957 130.019 115.328 127.094 115.328H84.7188C81.7934 115.328 79.4219 112.957 79.4219 110.031Z" fill="#FA675B"/>
<path fill-rule="evenodd" clip-rule="evenodd" d="M79.4219 134.75C79.4219 131.825 81.7934 129.453 84.7188 129.453H112.969C115.894 129.453 118.266 131.825 118.266 134.75C118.266 137.676 115.894 140.047 112.969 140.047H84.7188C81.7934 140.047 79.4219 137.676 79.4219 134.75Z" fill="#FA675B"/>
</svg>
