<svg width="212" height="212" viewBox="0 0 212 212" fill="none" xmlns="http://www.w3.org/2000/svg">
<path d="M40.5 67.6562C40.5 59.2857 47.2857 52.5 55.6562 52.5H112.156C120.527 52.5 127.312 59.2857 127.312 67.6562V145.344C127.312 153.714 120.527 160.5 112.156 160.5H55.6563C47.2857 160.5 40.5 153.714 40.5 145.344V67.6562Z" stroke="#2B5DDC" stroke-width="5"/>
<path fill-rule="evenodd" clip-rule="evenodd" d="M57.4219 81.7813C57.4219 78.8559 59.7934 76.4844 62.7188 76.4844H105.094C108.019 76.4844 110.391 78.8559 110.391 81.7813C110.391 84.7066 108.019 87.0781 105.094 87.0781H62.7188C59.7934 87.0781 57.4219 84.7066 57.4219 81.7813Z" fill="#FA675B"/>
<path fill-rule="evenodd" clip-rule="evenodd" d="M57.4219 110.031C57.4219 107.106 59.7934 104.734 62.7188 104.734H105.094C108.019 104.734 110.391 107.106 110.391 110.031C110.391 112.957 108.019 115.328 105.094 115.328H62.7188C59.7934 115.328 57.4219 112.957 57.4219 110.031Z" fill="#FA675B"/>
<path fill-rule="evenodd" clip-rule="evenodd" d="M57.4219 134.75C57.4219 131.825 59.7934 129.453 62.7188 129.453H90.9688C93.8941 129.453 96.2656 131.825 96.2656 134.75C96.2656 137.676 93.8941 140.047 90.9688 140.047H62.7188C59.7934 140.047 57.4219 137.676 57.4219 134.75Z" fill="#FA675B"/>
</svg>
